{"title":"Days.of.Glory.2006.BRRip.720p.x264.AAC-PRiSTiNE [P2PDL]","uid":13135497,"size":855785895,"categoryP":"video","categoryS":"hd___movies","magnet":"?xt=urn:btih:9fad35e59bea90ee2bca8cbc0eadc326ab97c2a5&amp;dn=Days.of.Glory.2006.BRRip.720p.x264.AAC-PRiSTiNE+%5BP2PDL%5D&amp;tr=udp%3A%2F%2Ftracker.leechers-paradise.org%3A6969&amp;tr=udp%3A%2F%2Fzer0day.ch%3A1337&amp;tr=udp%3A%2F%2Fopen.demonii.com%3A1337&amp;tr=udp%3A%2F%2Ftracker.coppersurfer.tk%3A6969&amp;tr=udp%3A%2F%2Fexodus.desync.com%3A6969","seeders":6,"leechers":3,"uploader":"VYTOP2PDL","files":7,"time":1451896576,"description":"____    ____ ____    ____ .___________.  ______   \r\n     /   /      /   / |           | /  __    \r\n    /   /      /   /  `---|  |----`|  |  |  | \r\n        /     _    _/       |  |     |  |  |  | \r\n       /        |  |         |  |     |  `--'  | \r\n    __/         |__|         |__|      ______/  \r\n                                                  \r\nPresenting Small Encodes with quality for years!\r\n                                                                                                   \r\n                                                                                                   \r\n\r\nDays.of.Glory.2006.BRRip.720p.x264.AAC-PRiSTiNE\r\n\r\n\r\nGenre: Drama, War  \nhttp://www.imdb.com/title/tt0444182/\r\n\r\n\r\nFormat                                   : MPEG-4\r\nFile size                                : 796 MiB\r\nDuration                                 : 2h 3mn\r\nOverall bit rate                         : 901 Kbps\r\n\r\nVideo\r\nFormat                                   : AVC\r\nBit rate                                 : 818 Kbps\r\nWidth                                    : 1 280 pixels\r\nHeight                                   : 544 pixels\r\nDisplay aspect ratio                     : 2.35:1\r\nFrame rate mode                          : Constant\r\nFrame rate                               : 24.000 fps\r\nBit depth                                : 8 bits\r\nStream size                              : 723 MiB (91%)\r\nWriting library                          : x264\r\n\r\nAudio\r\nFormat                                   : AAC\r\nBit rate mode                            : Variable\r\nBit rate                                 : 80.0 Kbps\r\nChannel(s)                               : 2 channels\r\nChannel positions                        : Front: L R\r\nSampling rate                            : 48.0 KHz\r\nStream size                              : 70.7 MiB (9%)\r\nLanguage                                 : French\r\n\r\nSubtitle                                 : Yes (English)\r\n\r\nScreen shots: (Click to view)\r\n \nhttp://ititli.com/cQ \nhttp://ititli.com/cS \nhttp://ititli.com/cZ \nhttp://ititli.com/cc \nhttp://ititli.com/ci \nhttp://ititli.com/cp \nhttp://ititli.com/cD \nhttp://ititli.com/ca \nhttp://ititli.com/cb\r\n\r\n----------------------------------------------------------------------------------------------------\r\n\r\n\r\nEncoder Notes: Looking For Early Access To Anything You Can Provide WEBDL, DVDScr, DVDR, BluRay,\r\nDirect Audio, Music Releases and Seedboxes. If You Got anything to offer please contact us.\r\n\r\nSupport us by donating BC - 1FgwdzPsd1y25Gea8wP1qni35uGCtmkRCD\r\n\r\nSend some love!\r\nFind us and join us!","torrent":{"xt":"urn:btih:9fad35e59bea90ee2bca8cbc0eadc326ab97c2a5","amp;dn":"Days.of.Glory.2006.BRRip.720p.x264.AAC-PRiSTiNE+%5BP2PDL%5D","amp;tr":["udp%3A%2F%2Ftracker.leechers-paradise.org%3A6969","udp%3A%2F%2Fzer0day.ch%3A1337","udp%3A%2F%2Fopen.demonii.com%3A1337","udp%3A%2F%2Ftracker.coppersurfer.tk%3A6969","udp%3A%2F%2Fexodus.desync.com%3A6969"],"infoHash":"9fad35e59bea90ee2bca8cbc0eadc326ab97c2a5","infoHashBuffer":{"type":"Buffer","data":[159,173,53,229,155,234,144,238,43,202,140,188,14,173,195,38,171,151,194,165]},"announce":[],"urlList":[]}}